Coordinates
version=1
nRows=15
nColumns=34
inDegrees=yes

Units are S.I. units (second, meters, Newtons, ...)
If the header above contains a line with 'inDegrees', this indicates whether rotational values are in degrees (yes) or radians (no).

endheader
time	pelvis_tilt	pelvis_list	pelvis_rotation	pelvis_tx	pelvis_ty	pelvis_tz	hip_flexion_r	hip_adduction_r	hip_rotation_r	knee_angle_r	ankle_angle_r	subtalar_angle_r	mtp_angle_r	hip_flexion_l	hip_adduction_l	hip_rotation_l	knee_angle_l	ankle_angle_l	subtalar_angle_l	mtp_angle_l	lumbar_extension	lumbar_bending	lumbar_rotation	arm_flex_r	arm_add_r	arm_rot_r	elbow_flex_r	pro_sup_r	arm_flex_l	arm_add_l	arm_rot_l	elbow_flex_l	pro_sup_l
      4.70000000	     17.51781157	     -7.70186407	      0.80721622	     -0.01309469	      0.43338065	     -0.09943124	     79.55541535	    -12.05109643	    -19.91043814	     63.69905031	     18.15070847	      8.83201825	      0.00000000	     82.31127894	      2.10509882	      4.19032563	     53.83804572	    -10.54884054	    -19.37606575	      0.00000000	    -35.69415246	      0.65457691	     -4.55509339	    149.51871239	      1.07652410	     86.65930993	     36.09974446	     71.89011284	     81.03474685	    -30.54685880	     50.98163652	     44.91439427	     62.62233905
      4.71666670	     17.04705896	     -7.82941671	      0.31270288	     -0.01607227	      0.43502830	     -0.10131798	     79.64053303	    -12.24971740	    -20.96207298	     63.47486559	     17.80258489	      8.58284774	      0.00000000	     82.48047531	      1.75826013	      3.99495319	     53.32429295	    -10.72513869	    -19.85023097	      0.00000000	    -35.72809824	      0.49080372	     -6.41236881	    150.91082851	      1.99106522	     86.10893991	     37.62542847	     71.85133943	     82.00781783	    -31.31845470	     50.59725448	     44.14296459	     62.51352227
      4.73333330	     16.62697846	     -8.15050244	     -0.44648039	     -0.02294093	      0.43469933	     -0.10466896	     79.52684184	    -12.10179961	    -22.06330450	     62.70475618	     16.80824547	      8.15862487	      0.00000000	     82.58113000	      1.23396808	      4.27943476	     52.91016930	    -11.05468349	    -20.74876041	      0.00000000	    -36.57560227	      0.26180725	     -7.81973102	    152.84564491	      1.61470637	     84.67580747	     41.01013040	     71.82713418	     83.42702486	    -32.39101196	     49.71504830	     44.94868714	     62.29506318
      4.75000000	     15.78926232	     -8.17881137	     -1.02434153	     -0.01802097	      0.43424118	     -0.10442496	     80.23221931	    -12.31756103	    -23.11300028	     62.81319761	     16.01547614	      8.39166932	      0.00000000	     83.54393934	      0.81288097	      4.27909528	     53.17272676	    -10.75466772	    -21.63753030	      0.00000000	    -36.99043708	      0.03808697	     -9.38474965	    154.36449805	      2.18442631	     84.51933729	     41.54049918	     71.89646434	     85.10867765	    -33.19928526	     49.17091398	     44.32597162	     62.23055210
      4.76666670	     15.09958994	     -8.61508676	     -1.63102882	     -0.01678286	      0.42950249	     -0.10361373	     80.77846268	    -12.25519607	    -24.28865383	     62.66586626	     15.64001268	      8.64798768	      0.00000000	     84.94477754	      0.16281464	      4.41945087	     53.93665020	    -10.81553963	    -22.36940470	      0.00000000	    -37.41386552	     -0.18726005	    -10.63035644	    155.40624952	      2.06417572	     84.56627897	     41.79773836	     71.97905145	     87.06069930	    -33.76990820	     48.67626607	     43.87588818	     62.18054219
      4.78333330	     14.20037879	     -8.93524264	     -2.08692418	     -0.01888355	      0.42682787	     -0.10483955	     81.74758851	    -12.37124374	    -25.18135009	     63.00298908	     15.49581798	      8.53280262	      0.00000000	     86.45947864	     -0.22072557	      4.54497721	     54.58248100	    -11.60435685	    -23.61858460	      0.00000000	    -38.21033799	     -0.30808585	    -11.57013859	    157.72645089	      1.51542549	     85.78609460	     43.01626929	     72.28814976	     89.85895435	    -33.84608803	     48.91469499	     43.05709944	     62.15093840
      4.80000000	     13.08266005	     -9.29314869	     -2.03975446	     -0.01448880	      0.42697774	     -0.10138693	     82.46088017	    -12.69492507	    -26.30656304	     62.33651006	     15.63584988	      7.92899004	      0.00000000	     87.67920212	     -0.64959218	      4.61404691	     55.00815466	    -11.21651376	    -23.76604854	      0.00000000	    -38.38287201	     -0.30131894	    -13.27461265	    158.72816858	      1.27255079	     85.66419225	     43.15357153	     72.28484541	     91.82768862	    -34.39758212	     48.28614849	     42.48811005	     62.06476623
      4.81666670	     11.86597222	     -9.64212466	     -1.39754484	     -0.00818668	      0.42406023	     -0.10076034	     83.57717359	    -13.87348375	    -27.42662858	     63.12360489	     16.65803063	      6.56264228	      0.00000000	     89.17737101	     -0.22734963	      4.66138021	     55.50134645	    -10.96106212	    -24.06290439	      0.00000000	    -38.45588543	      0.32812871	    -15.11488932	    160.18415961	      1.45136666	     85.44182844	     44.21590274	     72.28054486	     93.66844274	    -34.93166983	     47.88049458	     41.50165530	     61.96853150
      4.83333330	     10.95046164	    -10.02522474	     -1.56071430	     -0.01055809	      0.42023410	     -0.09990048	     84.77235083	    -14.11554794	    -27.72904048	     64.12458386	     16.30407617	      5.48485554	      0.00000000	     90.34445152	     -0.46916822	      4.83521778	     56.18103997	    -10.48750170	    -24.11883793	      0.00000000	    -39.39898047	     -0.18137328	    -15.83959954	    162.53992445	     -1.35632994	     86.02846919	     49.02491257	     72.00412005	     97.30617426	    -34.11923110	     49.59256874	     39.48292605	     61.67180660
      4.85000000	     10.19973866	    -10.31193505	     -2.14790320	     -0.00525450	      0.41467677	     -0.10547539	     86.32843142	    -14.52872439	    -27.82199054	     65.82259012	     15.59309099	      5.35599767	      0.00000000	     91.88280693	     -0.49073058	      5.40303684	     56.66258656	    -10.88279297	    -24.93454670	      0.00000000	    -40.06385729	     -0.35251876	    -16.50141618	    164.24594824	     -2.11319338	     86.26567145	     51.13255716	     71.87725082	     99.29427960	    -34.11952228	     49.39836362	     38.46770175	     61.24784213
      4.86666670	      9.84803731	    -10.61900627	     -2.33758419	     -0.00570091	      0.40538812	     -0.09755895	     87.24001847	    -14.70299556	    -27.83211802	     66.67143514	     15.38491768	      5.21238196	      0.00000000	     93.67383744	     -0.50853551	      5.88982011	     58.86815143	    -11.83271979	    -23.84630018	      0.00000000	    -41.80822997	     -0.99141363	    -16.00523139	    168.24917457	     -4.92915076	     88.25084150	     55.23101180	     71.49908952	    103.62641065	    -31.83932280	     52.03451273	     35.78116327	     60.70956060
      4.88333330	      9.82719740	    -10.84222161	     -2.83731541	     -0.00846278	      0.40561067	     -0.10340935	     87.18113305	    -14.52737231	    -28.19329988	     66.77227267	     13.91539745	      4.70550429	      0.00000000	     94.23697640	     -0.60277545	      6.67167630	     59.50863489	    -13.60003290	    -25.00576807	      0.00000000	    -43.54475143	     -1.39874169	    -16.28720218	    170.58955504	     -6.14710679	     88.56803633	     57.75302398	     70.93364989	    106.41841086	    -31.15352489	     53.02068477	     33.73188453	     59.81788830
      4.90000000	      9.78630089	    -11.59167512	     -3.29424781	     -0.01372740	      0.40385475	     -0.10381361	     86.82977213	    -13.94847662	    -28.77708818	     65.97559390	     12.63109157	      4.52912053	      0.00000000	     94.54429184	     -0.90928912	      7.58920083	     59.10928205	    -14.69027134	    -24.58765526	      0.00000000	    -45.46743704	     -1.60541316	    -16.26704697	    172.67714645	     -8.07328831	     87.55365117	     61.32488699	     70.72427422	    109.70790896	    -30.05864754	     54.65632931	     31.21366467	     58.91047124
      4.91666670	      9.72883598	    -12.22552902	     -3.18464061	     -0.00952292	      0.40391189	     -0.10231459	     86.18658149	    -13.76184263	    -29.51856986	     65.05385640	     12.85504843	      3.98526714	      0.00000000	     94.85365462	     -0.65867883	      8.21011919	     58.88481680	    -15.56410453	    -23.99330504	      0.00000000	    -47.24022242	     -1.33644801	    -16.87665461	    173.90891385	     -8.99879465	     86.61803128	     63.32198221	     70.83201195	    111.97484308	    -30.03802945	     54.97737250	     29.92529481	     58.40102489
      4.93333330	      8.30819381	    -12.53483700	     -5.02963063	     -0.01684280	      0.40586528	     -0.10837446	     86.98784995	    -12.06697276	    -29.30339408	     64.08439560	     12.65691024	      4.82751750	      0.00000000	     95.41108494	     -1.94246726	      8.99857428	     57.53403580	    -16.19299942	    -22.93319082	      0.00000000	    -47.94960340	     -1.69028474	    -16.99167419	    174.89290675	     -8.40392908	     86.06247692	     64.53928686	     70.88951914	    113.79150727	    -31.21627171	     54.58577138	     29.01911732	     58.23170688
